<svg width="122" height="40" viewBox="0 0 122 40" fill="none" xmlns="http://www.w3.org/2000/svg">
<path d="M0.688 39.176C1.168 37.576 1.712 35.832 2.32 33.944C2.928 32.024 3.632 29.784 4.432 27.224C5.232 24.632 6.16 21.56 7.216 18.008C8.272 14.456 9.488 10.264 10.864 5.432C10.896 5.336 10.96 5.096 11.056 4.712C11.152 4.328 11.2 3.944 11.2 3.56C11.2 3.304 11.152 3.128 11.056 3.032C10.992 2.936 10.832 2.888 10.576 2.888C9.904 2.888 9.248 3.16 8.608 3.704C8 4.248 7.44 4.936 6.928 5.768C6.448 6.568 6.064 7.416 5.776 8.312C5.52 9.176 5.392 9.96 5.392 10.664C5.392 11.432 5.552 12.184 5.872 12.92C4.464 12.92 3.472 12.632 2.896 12.056C2.32 11.448 2.032 10.696 2.032 9.8C2.032 8.712 2.368 7.624 3.04 6.536C3.712 5.416 4.56 4.408 5.584 3.512C6.64 2.584 7.728 1.848 8.848 1.304C10 0.727999 11.04 0.439999 11.968 0.439999C13.088 0.439999 14 0.855999 14.704 1.688C15.44 2.488 16.032 3.592 16.48 5C16.96 6.408 17.36 8.008 17.68 9.8C18 11.592 18.304 13.48 18.592 15.464C18.976 18.024 19.28 20.072 19.504 21.608C19.728 23.112 19.904 24.312 20.032 25.208C20.192 26.104 20.32 26.856 20.416 27.464C20.544 28.072 20.672 28.76 20.8 29.528C21.184 27.992 21.568 26.376 21.952 24.68C22.368 22.952 22.784 21.208 23.2 19.448C23.616 17.688 24.016 15.976 24.4 14.312C24.816 12.616 25.232 11.032 25.648 9.56C26.064 8.088 26.464 6.792 26.848 5.672C27.264 4.52 27.664 3.608 28.048 2.936C28.336 2.424 28.784 1.88 29.392 1.304C30.032 0.695999 30.88 0.391999 31.936 0.391999C31.392 1.832 30.768 3.624 30.064 5.768C29.392 7.88 28.704 10.184 28 12.68C27.296 15.144 26.608 17.672 25.936 20.264C25.296 22.824 24.72 25.32 24.208 27.752C23.696 30.152 23.28 32.344 22.96 34.328C22.672 36.312 22.528 37.928 22.528 39.176C21.344 39.176 20.368 38.888 19.6 38.312C18.864 37.768 18.304 36.68 17.92 35.048C17.792 34.504 17.6 33.592 17.344 32.312C17.088 31.032 16.8 29.528 16.48 27.8C16.16 26.04 15.824 24.2 15.472 22.28C15.12 20.36 14.784 18.488 14.464 16.664C14.144 14.808 13.856 13.16 13.6 11.72C13.344 10.248 13.136 9.128 12.976 8.36C11.536 13.608 10.304 18.056 9.28 21.704C8.256 25.32 7.36 28.28 6.592 30.584C5.824 32.856 5.136 34.616 4.528 35.864C3.92 37.112 3.312 37.976 2.704 38.456C2.096 38.936 1.424 39.176 0.688 39.176ZM32.0005 37.256C30.9445 37.256 30.0325 36.904 29.2645 36.2C28.4645 35.496 28.0645 34.44 28.0645 33.032C28.0645 31.912 28.3205 30.696 28.8325 29.384C29.3445 28.072 30.0485 26.776 30.9445 25.496C31.8405 24.216 32.8645 23.064 34.0165 22.04C35.1685 20.984 36.4005 20.136 37.7125 19.496C39.0245 18.856 40.3365 18.536 41.6485 18.536C43.0245 18.536 44.1925 18.888 45.1525 19.592C46.1125 20.296 46.5925 21.224 46.5925 22.376C46.5925 23.24 46.2885 23.864 45.6805 24.248C45.0725 24.632 44.3525 24.744 43.5205 24.584C43.5845 24.296 43.6325 24.008 43.6645 23.72C43.7285 23.432 43.7605 23.128 43.7605 22.808C43.7605 22.168 43.6325 21.592 43.3765 21.08C43.1205 20.568 42.5765 20.312 41.7445 20.312C40.8485 20.312 39.9365 20.616 39.0085 21.224C38.0805 21.832 37.1845 22.632 36.3205 23.624C35.4885 24.584 34.7365 25.656 34.0645 26.84C33.3925 27.992 32.8645 29.128 32.4805 30.248C32.0965 31.368 31.9045 32.376 31.9045 33.272C31.9045 34.296 32.2725 34.808 33.0085 34.808C33.7445 34.808 34.5605 34.456 35.4565 33.752C36.3525 33.016 37.2485 32.104 38.1445 31.016C39.0725 29.928 39.9525 28.824 40.7845 27.704C41.6165 26.552 42.3365 25.576 42.9445 24.776C43.0405 24.616 43.1685 24.536 43.3285 24.536C43.4565 24.568 43.6965 24.648 44.0485 24.776C44.4325 24.872 44.7845 25.032 45.1045 25.256C45.4245 25.48 45.5845 25.768 45.5845 26.12C45.5845 26.44 45.4405 26.856 45.1525 27.368C44.8965 27.848 44.5765 28.392 44.1925 29C43.8405 29.576 43.5205 30.168 43.2325 30.776C42.9765 31.352 42.8485 31.912 42.8485 32.456C42.8485 32.872 42.9605 33.272 43.1845 33.656C43.4085 34.008 43.7765 34.184 44.2885 34.184C45.0565 34.184 46.1285 33.624 47.5045 32.504C48.9125 31.352 50.3365 29.416 51.7765 26.696L52.6885 27.608C51.9205 29.336 50.9925 30.872 49.9045 32.216C48.8485 33.528 47.7285 34.552 46.5445 35.288C45.3605 36.056 44.1605 36.44 42.9445 36.44C41.6325 36.44 40.6565 36.024 40.0165 35.192C39.3765 34.36 39.0245 33.464 38.9605 32.504C38.9605 32.44 38.9605 32.392 38.9605 32.36C38.9605 32.328 38.9605 32.296 38.9605 32.264C37.6805 33.8 36.4965 35.016 35.4085 35.912C34.3525 36.808 33.2165 37.256 32.0005 37.256ZM55.0086 37.208C53.6006 37.208 52.4646 36.792 51.6006 35.96C50.7366 35.128 50.3046 33.864 50.3046 32.168C50.3046 30.856 50.5446 29.224 51.0246 27.272C51.5366 25.32 52.1766 23.304 52.9446 21.224C52.7206 21.16 52.4486 21.112 52.1286 21.08C51.8406 21.016 51.5526 20.92 51.2646 20.792V19.304C51.7766 19.368 52.1926 19.416 52.5126 19.448C52.8646 19.48 53.2166 19.512 53.5686 19.544C54.2406 17.848 54.9606 16.216 55.7286 14.648C56.5286 13.048 57.3126 11.624 58.0806 10.376C58.8806 9.128 59.6326 8.152 60.3366 7.448C61.0406 6.712 61.6646 6.344 62.2086 6.344C62.5286 6.344 62.8326 6.472 63.1206 6.728C63.4086 6.952 63.5526 7.288 63.5526 7.736C63.5526 8.376 63.2166 9.288 62.5446 10.472C61.9046 11.656 61.1046 13.048 60.1446 14.648C59.1846 16.216 58.2566 17.896 57.3606 19.688C57.6166 19.688 57.8726 19.688 58.1286 19.688C58.3846 19.688 58.6246 19.688 58.8486 19.688C60.2566 19.688 61.5206 19.672 62.6406 19.64C63.7926 19.576 64.9606 19.48 66.1446 19.352V20.936C64.3846 21.096 62.7686 21.224 61.2966 21.32C59.8246 21.416 58.4166 21.48 57.0726 21.512C56.9766 21.512 56.8806 21.512 56.7846 21.512C56.6886 21.512 56.5926 21.512 56.4966 21.512C55.8246 23.08 55.2326 24.696 54.7206 26.36C54.2406 27.992 54.0006 29.592 54.0006 31.16C54.0006 32.472 54.2086 33.4 54.6246 33.944C55.0406 34.488 55.6966 34.76 56.5926 34.76C58.1926 34.76 59.8246 34.04 61.4886 32.6C63.1846 31.128 64.6566 29.144 65.9046 26.648L66.5766 27.128C65.7446 29.016 64.7046 30.728 63.4566 32.264C62.2406 33.8 60.9126 35 59.4726 35.864C58.0326 36.76 56.5446 37.208 55.0086 37.208ZM68.1168 36.44C67.0288 36.44 66.1328 35.944 65.4288 34.952C64.7568 33.928 64.4207 32.76 64.4207 31.448C64.4207 30.552 64.5648 29.496 64.8528 28.28C65.1408 27.064 65.5088 25.88 65.9568 24.728C66.4368 23.576 66.9168 22.616 67.3968 21.848C67.9088 21.08 68.3728 20.696 68.7888 20.696C69.0128 20.696 69.3488 20.824 69.7968 21.08C70.2768 21.304 70.6928 21.592 71.0448 21.944C70.6928 22.456 70.2608 23.24 69.7488 24.296C69.2688 25.352 68.8368 26.488 68.4528 27.704C68.0688 28.92 67.8768 30.024 67.8768 31.016C67.8768 31.144 67.8928 31.448 67.9248 31.928C67.9888 32.408 68.1168 32.856 68.3088 33.272C68.5008 33.688 68.8368 33.896 69.3168 33.896C69.8608 33.896 70.4368 33.608 71.0448 33.032C71.6848 32.424 72.3248 31.656 72.9648 30.728C73.6368 29.768 74.2768 28.744 74.8848 27.656C75.5248 26.568 76.0848 25.512 76.5648 24.488C77.0768 23.464 77.4928 22.6 77.8128 21.896C78.1008 21.928 78.4688 22.008 78.9168 22.136C79.3968 22.264 79.8128 22.44 80.1648 22.664C80.5168 22.856 80.6928 23.144 80.6928 23.528C80.6928 23.624 80.5328 24.024 80.2128 24.728C79.9248 25.4 79.5728 26.216 79.1568 27.176C78.7728 28.136 78.4208 29.128 78.1008 30.152C77.8128 31.144 77.6688 32.024 77.6688 32.792C77.6688 33.24 77.7488 33.64 77.9088 33.992C78.1008 34.312 78.4528 34.472 78.9648 34.472C79.6368 34.472 80.4368 34.168 81.3648 33.56C82.2928 32.952 83.2528 32.072 84.2448 30.92C85.2368 29.768 86.1168 28.392 86.8848 26.792L87.6048 27.368C86.9008 29.096 85.9888 30.648 84.8688 32.024C83.7488 33.4 82.5488 34.472 81.2688 35.24C79.9888 36.04 78.7408 36.44 77.5248 36.44C76.5968 36.44 75.8928 36.216 75.4128 35.768C74.9648 35.352 74.6608 34.808 74.5008 34.136C74.3408 33.432 74.2448 32.728 74.2128 32.024C74.2128 31.864 74.2128 31.704 74.2128 31.544C74.2128 31.352 74.2128 31.192 74.2128 31.064C73.6688 31.928 73.0768 32.776 72.4368 33.608C71.7968 34.408 71.1088 35.08 70.3728 35.624C69.6688 36.168 68.9168 36.44 68.1168 36.44ZM94.5363 36.248C93.3523 36.248 92.3923 35.928 91.6562 35.288C90.9203 34.68 90.5523 33.848 90.5523 32.792C90.5523 31.896 90.7763 30.936 91.2243 29.912C91.6723 28.888 92.1203 27.88 92.5683 26.888C93.0483 25.896 93.2883 25.016 93.2883 24.248C93.2883 23.512 93.0483 22.904 92.5683 22.424C92.0883 21.912 91.5283 21.496 90.8883 21.176C90.1843 22.936 89.3843 24.648 88.4883 26.312C87.6243 27.944 86.9203 29.224 86.3763 30.152L85.6562 28.76C86.1043 27.928 86.6963 26.744 87.4323 25.208C88.1683 23.672 88.8723 21.96 89.5443 20.072C89.2243 19.752 89.0643 19.32 89.0643 18.776C89.0643 17.944 89.3203 17.16 89.8323 16.424C90.3443 15.688 90.8403 15.32 91.3203 15.32C91.7043 15.32 91.9763 15.544 92.1363 15.992C92.3283 16.408 92.4243 16.696 92.4243 16.856C92.4243 17.016 92.3443 17.304 92.1843 17.72C92.0563 18.136 91.9603 18.44 91.8963 18.632C91.9283 18.984 92.2003 19.336 92.7122 19.688C93.2563 20.008 93.8643 20.392 94.5363 20.84C95.2083 21.288 95.8003 21.848 96.3123 22.52C96.8243 23.192 97.0803 24.04 97.0803 25.064C97.0803 25.992 96.8723 26.936 96.4563 27.896C96.0403 28.856 95.6243 29.752 95.2083 30.584C94.7923 31.416 94.5843 32.136 94.5843 32.744C94.5843 33.192 94.6963 33.496 94.9203 33.656C95.1763 33.784 95.4643 33.848 95.7843 33.848C96.5523 33.848 97.3523 33.624 98.1843 33.176C99.0163 32.696 99.8323 32.088 100.632 31.352C101.432 30.616 102.136 29.848 102.744 29.048C103.352 28.216 103.816 27.464 104.136 26.792L105.288 27.656C104.68 29.032 103.8 30.392 102.648 31.736C101.496 33.048 100.216 34.136 98.8083 35C97.4003 35.832 95.9763 36.248 94.5363 36.248ZM108.662 37.112C106.614 37.112 105.03 36.552 103.91 35.432C102.822 34.344 102.278 32.968 102.278 31.304C102.278 29.896 102.63 28.408 103.334 26.84C104.07 25.24 105.046 23.752 106.262 22.376C107.478 20.968 108.822 19.832 110.294 18.968C111.766 18.104 113.238 17.672 114.71 17.672C115.542 17.672 116.326 17.896 117.062 18.344C117.83 18.76 118.214 19.608 118.214 20.888C118.214 22.104 117.862 23.24 117.158 24.296C116.454 25.352 115.51 26.296 114.326 27.128C113.142 27.96 111.83 28.648 110.39 29.192C108.982 29.704 107.558 30.04 106.118 30.2C106.086 30.328 106.054 30.472 106.022 30.632C106.022 30.76 106.022 30.984 106.022 31.304C106.022 31.464 106.038 31.752 106.07 32.168C106.134 32.552 106.278 32.968 106.502 33.416C106.726 33.864 107.094 34.248 107.606 34.568C108.118 34.888 108.822 35.048 109.718 35.048C111.062 35.048 112.406 34.68 113.75 33.944C115.126 33.176 116.406 32.168 117.59 30.92C118.806 29.672 119.814 28.28 120.614 26.744L121.574 27.512C120.71 29.432 119.59 31.112 118.214 32.552C116.87 33.992 115.366 35.112 113.702 35.912C112.07 36.712 110.39 37.112 108.662 37.112ZM106.646 28.424C107.478 28.328 108.406 28.04 109.43 27.56C110.454 27.08 111.43 26.472 112.358 25.736C113.318 25 114.102 24.2 114.71 23.336C115.318 22.44 115.622 21.544 115.622 20.648C115.622 20.296 115.558 20.056 115.43 19.928C115.302 19.8 115.094 19.736 114.806 19.736C114.07 19.736 113.302 20.008 112.502 20.552C111.702 21.064 110.918 21.752 110.15 22.616C109.382 23.448 108.694 24.376 108.086 25.4C107.478 26.424 106.998 27.432 106.646 28.424Z" fill="white"/>
</svg>
